<svg xmlns="http://www.w3.org/2000/svg" viewBox="0 0 409.4 74.66"><defs><style>.cls-1{fill:#ed145b;}</style></defs><title>Zebble Logo-Pink</title><g id="Layer_2" data-name="Layer 2"><g id="Layer_1-2" data-name="Layer 1"><path class="cls-1" d="M340,71.16V8.46a6.7,6.7,0,0,1,7-7h6.32V71.16Z"/><path class="cls-1" d="M124.55,15.44V3.5h44.78V15.44l-28.26,42v1.79h28.26V71.16H124.55V59.32l28.26-42.09V15.44Z"/><path class="cls-1" d="M223.45,48.26v2a16.91,16.91,0,0,1-.1,1.86H188.08a8.49,8.49,0,0,0,1.22,3.71,10.54,10.54,0,0,0,2.64,2.88,12.94,12.94,0,0,0,7.77,2.59,13.47,13.47,0,0,0,6.45-1.42,12.73,12.73,0,0,0,4.3-3.66l11.14,7a22.54,22.54,0,0,1-9,7.67,29.91,29.91,0,0,1-13,2.69,31.14,31.14,0,0,1-10.35-1.71,25.08,25.08,0,0,1-8.55-5,23,23,0,0,1-5.76-8.06,27,27,0,0,1-2.1-10.94,27.37,27.37,0,0,1,2.05-10.79,24.4,24.4,0,0,1,5.57-8.21,24.83,24.83,0,0,1,8.3-5.23A28.4,28.4,0,0,1,199,21.79a26.22,26.22,0,0,1,9.87,1.81,21.5,21.5,0,0,1,7.72,5.23,24.17,24.17,0,0,1,5,8.3A32,32,0,0,1,223.45,48.26Zm-14.75-6.15a9.61,9.61,0,0,0-2.39-6.54q-2.39-2.73-7.18-2.74a12.15,12.15,0,0,0-4.3.73,11.14,11.14,0,0,0-3.42,2,9.91,9.91,0,0,0-2.34,3,8.71,8.71,0,0,0-1,3.57Z"/><path class="cls-1" d="M409.4,48.26v2a17.11,17.11,0,0,1-.1,1.86H374a8.49,8.49,0,0,0,1.22,3.71,10.54,10.54,0,0,0,2.64,2.88,12.94,12.94,0,0,0,7.77,2.59,13.46,13.46,0,0,0,6.45-1.42,12.74,12.74,0,0,0,4.3-3.66l11.14,7a22.54,22.54,0,0,1-9,7.67,29.91,29.91,0,0,1-13,2.69,31.14,31.14,0,0,1-10.35-1.71,25.1,25.1,0,0,1-8.55-5,23.06,23.06,0,0,1-5.76-8.06,27,27,0,0,1-2.1-10.94,27.38,27.38,0,0,1,2.05-10.79,24.39,24.39,0,0,1,5.57-8.21,24.81,24.81,0,0,1,8.3-5.23A28.4,28.4,0,0,1,385,21.79a26.23,26.23,0,0,1,9.87,1.81,21.51,21.51,0,0,1,7.72,5.23,24.17,24.17,0,0,1,5,8.3A32,32,0,0,1,409.4,48.26Zm-14.75-6.15a9.61,9.61,0,0,0-2.39-6.54q-2.39-2.73-7.18-2.74a12.15,12.15,0,0,0-4.3.73,11.15,11.15,0,0,0-3.42,2,9.91,9.91,0,0,0-2.34,3,8.72,8.72,0,0,0-1,3.57Z"/><path class="cls-1" d="M65.27,0C35.06,0,0,16.71,0,37.33S24.48,74.66,54.69,74.66s54.69-16.71,54.69-37.33S95.47,0,65.27,0ZM54.69,68.1c-6.63,0-12-3.83-12-8.54S48.06,51,54.69,51s12,3.83,12,8.55S61.32,68.1,54.69,68.1Zm0-20.6c-6.63,0-12-3.83-12-8.55s5.38-8.55,12-8.55,12,3.83,12,8.55S61.32,47.5,54.69,47.5Zm0-21.58c-6.63,0-12-3.83-12-8.55s5.38-8.55,12-8.55,12,3.83,12,8.55S61.32,25.92,54.69,25.92Z"/><path class="cls-1" d="M255.1,20.82a25.32,25.32,0,0,0-11.95,3V1.86h-6.78a6.71,6.71,0,0,0-6.71,6.71V46.26A25.44,25.44,0,1,0,255.1,20.82Zm.12,36.76a12.14,12.14,0,1,1,12.14-12.14A12.14,12.14,0,0,1,255.22,57.58Z"/><path class="cls-1" d="M309.29,20.82a25.32,25.32,0,0,0-11.95,3V1.86h-6.78a6.71,6.71,0,0,0-6.71,6.71V46.26a25.44,25.44,0,1,0,25.44-25.44Zm0,36.76a12.14,12.14,0,1,1,12.14-12.14A12.14,12.14,0,0,1,309.29,57.58Z"/></g></g></svg>